<svg width="200" height="200" viewBox="0 0 200 200" fill="none" xmlns="http://www.w3.org/2000/svg">
<g clip-path="url(#clip0_102_135)">
<path d="M35.4167 1.61203e-05H164.583C169.236 -0.00448106 173.843 0.932018 178.142 2.75592C182.441 4.57981 186.347 7.25531 189.636 10.6293C192.926 14.0032 195.535 18.0094 197.313 22.4186C199.091 26.8277 200.004 31.5533 200 36.3248V163.675C200.004 168.447 199.091 173.172 197.313 177.581C195.535 181.991 192.926 185.997 189.636 189.371C186.347 192.745 182.441 195.42 178.142 197.244C173.843 199.068 169.236 200.005 164.583 200H35.4167C30.7645 200.005 26.1571 199.068 21.8581 197.244C17.5592 195.42 13.6532 192.745 10.3635 189.371C7.07392 185.997 4.46532 181.991 2.68702 177.581C0.908718 173.172 -0.00436903 168.447 1.57173e-05 163.675V36.3248C-0.00436903 31.5533 0.908718 26.8277 2.68702 22.4186C4.46532 18.0094 7.07392 14.0032 10.3635 10.6293C13.6532 7.25531 17.5592 4.57981 21.8581 2.75592C26.1571 0.932018 30.7645 -0.00448106 35.4167 1.61203e-05Z" fill="#330000"/>
<path d="M96.9167 120H65.9167L59.5833 140.085C59.5126 140.452 59.3109 140.777 59.0179 140.999C58.725 141.22 58.3619 141.321 58 141.282H42.3333C41.4167 141.282 41.1667 140.769 41.4167 139.744L68.25 60.5128C68.5 59.6581 68.75 58.718 69.0833 57.6923C69.4187 55.8605 69.5861 54.0006 69.5833 52.1368C69.5584 51.9227 69.6132 51.7069 69.7368 51.5325C69.8604 51.3582 70.0438 51.2382 70.25 51.1966H91.8333C92.5 51.1966 92.8333 51.453 92.9167 51.8803L123.333 139.915C123.583 140.855 123.333 141.282 122.5 141.282H105.083C104.789 141.311 104.494 141.233 104.25 141.061C104.006 140.889 103.829 140.634 103.75 140.342L96.9167 120ZM70.75 102.65H91.9167C91.4167 100.855 90.75 98.718 90 96.4957C89.25 94.2735 88.5 91.7094 87.75 89.1453C87 86.5812 86.1667 83.9316 85.3333 81.2821C84.5 78.6325 83.75 76.1539 83.0833 73.6752C82.4167 71.1966 81.8333 69.0598 81.25 67.0086H81.0833C80.3344 70.7337 79.3886 74.4144 78.25 78.0342C77 82.1368 75.75 86.4103 74.4167 90.6838C73.25 95.0427 72 99.0598 70.75 102.65ZM141.5 65.812C140.132 65.8427 138.772 65.594 137.499 65.0804C136.225 64.5669 135.064 63.7986 134.083 62.8205C132.174 60.6794 131.157 57.8572 131.25 54.9573C131.201 53.5443 131.443 52.1366 131.959 50.8259C132.476 49.5152 133.257 48.331 134.25 47.3504C136.253 45.4087 138.911 44.3368 141.667 44.359C144.917 44.359 147.417 45.3846 149.25 47.3504C151.096 49.4229 152.083 52.1514 152 54.9573C152.051 56.4013 151.819 57.8412 151.318 59.1918C150.817 60.5424 150.057 61.7763 149.083 62.8205C148.101 63.8463 146.916 64.6442 145.608 65.1603C144.3 65.6763 142.899 65.8985 141.5 65.812ZM132.167 140V74.188C132.167 73.3333 132.5 72.9915 133.25 72.9915H149.75C150.5 72.9915 150.833 73.4188 150.833 74.188V140C150.833 140.94 150.5 141.368 149.75 141.368H133.417C133.242 141.382 133.065 141.356 132.901 141.292C132.737 141.227 132.59 141.125 132.47 140.993C132.349 140.862 132.26 140.704 132.207 140.532C132.155 140.36 132.141 140.178 132.167 140Z" fill="#FF9A00"/>
</g>
<defs>
<clipPath id="clip0_102_135">
<rect width="200" height="200" fill="white"/>
</clipPath>
</defs>
</svg>
