<svg width="200" height="200" viewBox="0 0 200 200" fill="none" xmlns="http://www.w3.org/2000/svg">
<g clip-path="url(#clip0_102_125)">
<path d="M35.4167 0H164.583C184.167 0 200 16.236 200 36.3173V163.642C200 183.723 184.167 199.959 164.583 199.959H35.4167C15.8333 199.959 0 183.723 0 163.642V36.3173C0 16.236 15.8333 0 35.4167 0Z" fill="#001E36"/>
<path d="M64.9298 127.377V71.8216C64.9298 71.4437 65.0756 71.2277 65.4155 71.2277C66.2413 71.2277 67.0184 71.2277 68.1355 71.1738C69.3012 71.1198 70.5155 71.1198 71.8269 71.0658C73.1383 71.0118 74.5469 71.0118 76.0526 70.9578C77.5582 70.9038 79.0154 70.9038 80.4725 70.9038C84.4553 70.9038 87.7581 71.4437 90.4781 72.5775C92.9066 73.4953 95.1409 75.007 96.9866 77.0047C98.5408 78.7323 99.7551 80.8379 100.532 83.1595C101.261 85.4271 101.649 87.7486 101.649 90.1782C101.649 94.8213 100.678 98.6546 98.7351 101.678C96.7923 104.701 94.0723 106.969 90.9152 108.265C87.6124 109.615 83.9696 110.1 79.9868 110.1C78.8211 110.1 78.044 110.1 77.5582 110.046C77.0725 109.992 76.3925 109.992 75.4697 109.992V127.323C75.5183 127.701 75.2754 128.025 74.9354 128.079H65.5127C65.1241 128.079 64.9298 127.863 64.9298 127.377ZM75.5183 81.6478V99.7884C76.1983 99.8424 76.8297 99.8964 77.4125 99.8964H79.9868C81.881 99.8964 83.7753 99.5724 85.5724 98.9245C87.1267 98.4386 88.4867 97.4128 89.5552 96.0631C90.5752 94.7133 91.0609 92.8777 91.0609 90.5021C91.1095 88.8284 90.7209 87.1548 89.9438 85.697C89.1181 84.2933 87.9524 83.2135 86.5438 82.6196C84.7467 81.8098 82.8039 81.4858 80.8125 81.5398C79.5496 81.5398 78.4325 81.5398 77.5097 81.5938C76.5383 81.5398 75.8583 81.5938 75.5183 81.6478ZM131.958 96.495C130.5 95.6312 128.946 95.0373 127.295 94.6593C125.498 94.2274 123.701 93.9575 121.855 93.9575C120.883 93.9035 119.863 94.0655 118.941 94.3354C118.309 94.4974 117.775 94.8753 117.435 95.4152C117.192 95.8471 117.046 96.387 117.046 96.8729C117.046 97.3588 117.241 97.8447 117.532 98.2767C117.969 98.8705 118.552 99.3565 119.183 99.7344C120.301 100.382 121.466 100.976 122.632 101.516C125.255 102.488 127.78 103.838 130.112 105.457C131.715 106.591 133.026 108.103 133.949 109.938C134.726 111.666 135.115 113.556 135.066 115.499C135.115 118.037 134.435 120.574 133.172 122.68C131.812 124.84 129.918 126.513 127.732 127.485C125.352 128.619 122.438 129.213 118.941 129.213C116.706 129.213 114.521 128.997 112.335 128.511C110.635 128.187 108.935 127.593 107.381 126.783C107.041 126.567 106.798 126.189 106.846 125.757V116.363C106.846 116.201 106.895 115.985 107.041 115.877C107.186 115.769 107.332 115.823 107.478 115.931C109.372 117.173 111.364 118.037 113.501 118.577C115.346 119.117 117.289 119.387 119.232 119.387C121.078 119.387 122.389 119.117 123.263 118.631C124.041 118.253 124.575 117.335 124.575 116.363C124.575 115.607 124.186 114.906 123.409 114.204C122.632 113.502 121.029 112.692 118.649 111.666C116.172 110.694 113.889 109.399 111.752 107.779C110.246 106.591 108.984 105.025 108.061 103.19C107.284 101.462 106.895 99.5724 106.944 97.6828C106.944 95.3612 107.526 93.1476 108.595 91.15C109.809 88.9904 111.606 87.2627 113.695 86.1829C115.978 84.8872 118.843 84.2933 122.292 84.2933C124.283 84.2933 126.323 84.4553 128.315 84.7792C129.772 84.9952 131.18 85.4271 132.492 86.021C132.686 86.075 132.88 86.2909 132.978 86.5069C133.026 86.7228 133.075 86.9388 133.075 87.1548V95.9551C133.075 96.1711 132.978 96.387 132.832 96.495C132.395 96.603 132.152 96.603 131.958 96.495Z" fill="#31A8FF"/>
</g>
<defs>
<clipPath id="clip0_102_125">
<rect width="200" height="200" fill="white"/>
</clipPath>
</defs>
</svg>
