<svg width="200" height="225" viewBox="0 0 200 225" fill="none" xmlns="http://www.w3.org/2000/svg">
<g clip-path="url(#clip0_102_129)">
<path d="M50.01 225C77.6045 225 100 208.2 100 187.5V150H50.01C22.4155 150 0.019989 166.8 0.019989 187.5C0.019989 208.2 22.4155 225 50.01 225Z" fill="#0ACF83"/>
<path d="M0.019989 112.5C0.019989 91.8 22.4155 75 50.01 75H100V150H50.01C22.4155 150 0.019989 133.2 0.019989 112.5Z" fill="#A259FF"/>
<path d="M0.019989 37.5C0.019989 16.8 22.4155 0 50.01 0H100V75H50.01C22.4155 75 0.019989 58.2 0.019989 37.5Z" fill="#F24E1E"/>
<path d="M100 0H149.99C177.584 0 199.98 16.8 199.98 37.5C199.98 58.2 177.584 75 149.99 75H100V0Z" fill="#FF7262"/>
<path d="M199.98 112.5C199.98 133.2 177.584 150 149.99 150C122.396 150 100 133.2 100 112.5C100 91.8 122.396 75 149.99 75C177.584 75 199.98 91.8 199.98 112.5Z" fill="#1ABCFE"/>
</g>
<defs>
<clipPath id="clip0_102_129">
<rect width="200" height="225" fill="white"/>
</clipPath>
</defs>
</svg>
